:SAMPLES-PER-SECOND 30
:FULLY-SPECIFIED
:DEGREES
74
root  50.5939 38.494 4.72404 1.52585 -85.5968 -5.82823
RightUpLeg  -7.4699 -8.88906 1.38113
RightLeg  21.7436 -0.646113 0.385486
RightFoot  -10.0113 -0.036094 -2.73364
RightToes  -1.74624e-010 0 -3.6325e-017
Spine  4.04548 0.801077 14.4954
Spine1  8.66236 3.83651 -5.77243
HEad  1.7237 -8.39708 -1.18568
LeftShoulder1  -0.584351 4.96338 -33.8622
LeftArm  -2.3087 16.8548 -37.3991
LeftForeArm  38.5479 -9.44891 -8.4709
LeftHand  -0.0902233 9.77725 -0.93847
RightShoulder  -1.06551 -6.34443 30.9624
RightArm  18.5728 10.6864 45.8598
RightForeArm  15.2303 10.4474 7.99288
RightHand  -0.116148 3.62668 -1.75303
LeftUpLeg  -12.4684 0.0693928 3.81144
LeftLeg  57.1503 -0.69851 -0.656463
LeftFoot  0.305252 0.510837 -5.04189
LeftToes  2.27646e-009 -8.13696e-011 -1.44715e-011
75
root  49.7005 38.5959 4.61154 -8.33171 -86.6136 4.0721
RightUpLeg  -5.63045 -8.84091 0.784178
RightLeg  20.9516 0.0470814 0.56763
RightFoot  -11.0237 -0.0665266 -2.91352
RightToes  -1.74624e-010 0 -3.6325e-017
Spine  4.5219 1.41171 15.0052
Spine1  8.10291 4.81967 -7.66877
HEad  1.94757 -8.67424 -1.14812
LeftShoulder1  -0.495406 4.75147 -33.5591
LeftArm  -1.01636 18.8124 -36.693
LeftForeArm  37.0962 -10.973 -8.13134
LeftHand  -0.106118 8.38403 -2.24919
RightShoulder  -1.12647 -6.48532 31.2433
RightArm  19.6432 12.8853 45.7681
RightForeArm  13.266 11.973 7.64118
RightHand  -0.111452 4.11779 -1.63055
LeftUpLeg  -14.7987 0.207787 2.82471
LeftLeg  53.216 -0.790711 -0.67397
LeftFoot  -1.24161 0.456254 -5.0693
LeftToes  2.27646e-009 -8.13696e-011 -1.44715e-011
76
root  48.7787 38.6846 4.52648 -17.8577 -86.8106 13.4346
RightUpLeg  -3.27266 -9.06137 0.130086
RightLeg  19.8055 0.645969 0.848665
RightFoot  -11.9913 -0.0983478 -3.07292
RightToes  -1.74624e-010 0 -3.6325e-017
Spine  4.59216 1.66415 14.8567
Spine1  8.10044 5.0941 -8.34944
HEad  1.03782 -8.4334 -1.85826
LeftShoulder1  -0.533903 4.84006 -33.7988
LeftArm  -0.771817 20.1383 -36.2715
LeftForeArm  36.0693 -12.0732 -7.61425
LeftHand  -0.0739123 6.84189 -2.52997
RightShoulder  -1.08734 -6.41193 30.8449
RightArm  20.4534 14.7769 46.0503
RightForeArm  11.0168 13.4412 7.19296
RightHand  -0.152618 4.48318 -2.08086
LeftUpLeg  -16.3136 -0.354839 1.93535
LeftLeg  47.3941 -0.618283 -0.333172
LeftFoot  -2.05645 0.377835 -4.50591
LeftToes  2.27646e-009 -8.13696e-011 -1.44715e-011
77
root  47.8773 38.7589 4.47579 -26.8243 -87.0803 22.3772
RightUpLeg  -0.996792 -9.21841 -0.439504
RightLeg  18.4166 1.22495 1.08802
RightFoot  -12.8469 -0.127677 -3.10315
RightToes  -1.74624e-010 0 -3.6325e-017
Spine  4.69648 1.73393 15.1024
Spine1  7.88882 5.30154 -9.68671
HEad  0.747918 -7.69598 -1.86672
LeftShoulder1  -0.559098 4.90643 -33.7031
LeftArm  -0.705689 21.261 -36.2714
LeftForeArm  34.3588 -12.9558 -7.18408
LeftHand  -0.0765066 7.20711 -2.02188
RightShoulder  -1.04808 -6.31786 30.6917
RightArm  21.4609 16.6222 46.4096
RightForeArm  9.64899 14.5912 6.85504
RightHand  -0.170572 4.78148 -2.24947
LeftUpLeg  -17.1544 -0.894209 1.12522
LeftLeg  39.6287 -0.2709 0.142271
LeftFoot  -2.45727 0.374456 -4.62941
LeftToes  2.27646e-009 -8.13696e-011 -1.44715e-011
78
root  46.9886 38.821 4.40811 -33.9461 -87.3434 29.7514
RightUpLeg  0.952942 -9.15051 -0.704413
RightLeg  16.9537 1.58526 1.17455
RightFoot  -13.4495 -0.148401 -3.12942
RightToes  -1.74624e-010 0 -3.6325e-017
Spine  4.39917 1.96748 14.9981
Spine1  7.9896 5.52341 -10.5683
HEad  0.113734 -7.55406 -1.92887
LeftShoulder1  -0.560028 4.91657 -33.4847
LeftArm  -1.23375 21.529 -36.7841
LeftForeArm  32.8455 -13.1321 -6.99013
LeftHand  -0.0675326 7.0798 -1.82551
RightShoulder  -1.08653 -6.41378 30.7948
RightArm  23.2903 18.1401 46.368
RightForeArm  7.86601 16.2455 6.37033
RightHand  -0.18682 4.11886 -2.55287
LeftUpLeg  -17.515 -0.630679 0.622957
LeftLeg  30.2408 -0.958484 -0.257247
LeftFoot  -2.01751 0.439768 -5.23697
LeftToes  2.27646e-009 -8.13696e-011 -1.44715e-011
79
root  46.0758 38.8981 4.32286 -41.9021 -87.4736 37.9093
RightUpLeg  3.29607 -8.88396 -0.912857
RightLeg  14.8547 1.69938 1.07856
RightFoot  -13.8315 -0.158466 -2.98592
RightToes  -1.74624e-010 0 -3.6325e-017
Spine  3.89505 2.214 13.8296
Spine1  8.35236 5.47487 -10.3049
HEad  -0.265072 -6.91843 -2.22391
LeftShoulder1  -0.56419 4.92238 -33.6161
LeftArm  -1.60119 21.5669 -37.4057
LeftForeArm  33.0274 -13.2908 -6.84963
LeftHand  -0.0631487 6.8906 -1.78648
RightShoulder  -1.04671 -6.34189 30.3329
RightArm  23.8949 19.2316 46.6994
RightForeArm  7.39901 16.9416 6.11744
RightHand  -0.169149 4.68697 -2.23939
LeftUpLeg  -17.0159 0.33939 -0.103639
LeftLeg  19.5902 -2.28337 -0.543718
LeftFoot  -1.62615 0.534181 -6.17449
LeftToes  2.27646e-009 -8.13696e-011 -1.44715e-011
